<svg width="700" height="387" viewBox="0 0 700 387" fill="none" xmlns="http://www.w3.org/2000/svg">
<rect width="700" height="387" fill="#E5E5E5"/>
<path d="M555 305.632H170C167.746 305.629 165.586 304.733 163.992 303.139C162.399 301.546 161.503 299.385 161.5 297.132V73C161.503 70.7464 162.399 68.5859 163.992 66.9924C165.586 65.3989 167.746 64.5025 170 64.5H555C557.254 64.5026 559.414 65.399 561.008 66.9925C562.601 68.586 563.497 70.7465 563.5 73V297.132C563.497 299.385 562.601 301.546 561.007 303.139C559.414 304.733 557.254 305.629 555 305.632V305.632Z" fill="#E6E6E6"/>
<path d="M579 337H146V50.5C146.003 47.9813 147.005 45.5666 148.786 43.7856C150.567 42.0047 152.981 41.0029 155.5 41H569.5C572.019 41.0029 574.433 42.0047 576.214 43.7856C577.995 45.5666 578.997 47.9813 579 50.5V337ZM148 335H577V50.5C576.998 48.5115 576.207 46.6051 574.801 45.1991C573.395 43.793 571.488 43.0022 569.5 43H155.5C153.512 43.0022 151.605 43.793 150.199 45.1991C148.793 46.6051 148.002 48.5115 148 50.5V335Z" fill="#CCCCCC"/>
<path d="M362.5 57.5C364.709 57.5 366.5 55.7091 366.5 53.5C366.5 51.2909 364.709 49.5 362.5 49.5C360.291 49.5 358.5 51.2909 358.5 53.5C358.5 55.7091 360.291 57.5 362.5 57.5Z" fill="#E6E6E6"/>
<path d="M459 258.066H266C263.746 258.064 261.586 257.167 259.992 255.574C258.399 253.98 257.503 251.82 257.5 249.566V120.566C257.503 118.313 258.399 116.152 259.992 114.559C261.586 112.965 263.746 112.069 266 112.066H459C461.254 112.069 463.414 112.965 465.007 114.559C466.601 116.152 467.497 118.313 467.5 120.566V249.566C467.497 251.82 466.601 253.98 465.007 255.574C463.414 257.167 461.254 258.064 459 258.066V258.066Z" fill="white"/>
<path d="M297.75 167.066C296.168 167.066 294.621 166.597 293.305 165.718C291.99 164.839 290.964 163.589 290.359 162.127C289.753 160.666 289.595 159.057 289.904 157.505C290.212 155.953 290.974 154.528 292.093 153.409C293.212 152.29 294.637 151.528 296.189 151.22C297.741 150.911 299.35 151.069 300.811 151.675C302.273 152.28 303.523 153.306 304.402 154.621C305.281 155.937 305.75 157.484 305.75 159.066C305.748 161.187 304.904 163.22 303.404 164.72C301.904 166.22 299.871 167.063 297.75 167.066V167.066Z" fill="#CCCCCC"/>
<path d="M297.75 193.066C296.168 193.066 294.621 192.597 293.305 191.718C291.99 190.839 290.964 189.589 290.359 188.127C289.753 186.666 289.595 185.057 289.904 183.505C290.212 181.953 290.974 180.528 292.093 179.409C293.212 178.29 294.637 177.528 296.189 177.22C297.741 176.911 299.35 177.069 300.811 177.675C302.273 178.28 303.523 179.306 304.402 180.621C305.281 181.937 305.75 183.484 305.75 185.066C305.748 187.187 304.904 189.22 303.404 190.72C301.904 192.22 299.871 193.063 297.75 193.066V193.066Z" fill="#73C2FB"/>
<path d="M297.75 219.066C296.168 219.066 294.621 218.597 293.305 217.718C291.99 216.839 290.964 215.589 290.359 214.127C289.753 212.666 289.595 211.057 289.904 209.505C290.212 207.953 290.974 206.528 292.093 205.409C293.212 204.29 294.637 203.528 296.189 203.22C297.741 202.911 299.35 203.069 300.811 203.675C302.273 204.28 303.523 205.306 304.402 206.621C305.281 207.937 305.75 209.484 305.75 211.066C305.748 213.187 304.904 215.22 303.404 216.72C301.904 218.22 299.871 219.063 297.75 219.066V219.066Z" fill="#73C2FB"/>
<path d="M335.75 152.566C334.026 152.566 332.373 153.251 331.154 154.47C329.935 155.689 329.25 157.342 329.25 159.066C329.25 160.79 329.935 162.443 331.154 163.662C332.373 164.881 334.026 165.566 335.75 165.566H428.75C430.474 165.566 432.127 164.881 433.346 163.662C434.565 162.443 435.25 160.79 435.25 159.066C435.25 157.342 434.565 155.689 433.346 154.47C432.127 153.251 430.474 152.566 428.75 152.566H335.75Z" fill="#CCCCCC"/>
<path d="M335.75 178.566C334.026 178.566 332.373 179.251 331.154 180.47C329.935 181.689 329.25 183.342 329.25 185.066C329.25 186.79 329.935 188.443 331.154 189.662C332.373 190.881 334.026 191.566 335.75 191.566H428.75C430.474 191.566 432.127 190.881 433.346 189.662C434.565 188.443 435.25 186.79 435.25 185.066C435.25 183.342 434.565 181.689 433.346 180.47C432.127 179.251 430.474 178.566 428.75 178.566H335.75Z" fill="#73C2FB"/>
<path d="M335.75 204.566C334.026 204.566 332.373 205.251 331.154 206.47C329.935 207.689 329.25 209.342 329.25 211.066C329.25 212.79 329.935 214.443 331.154 215.662C332.373 216.881 334.026 217.566 335.75 217.566H428.75C430.474 217.566 432.127 216.881 433.346 215.662C434.565 214.443 435.25 212.79 435.25 211.066C435.25 209.342 434.565 207.689 433.346 206.47C432.127 205.251 430.474 204.566 428.75 204.566H335.75Z" fill="#73C2FB"/>
<path d="M586.5 324H569V321C569 319.939 568.579 318.922 567.828 318.172C567.078 317.421 566.061 317 565 317H544C542.939 317 541.922 317.421 541.172 318.172C540.421 318.922 540 319.939 540 321V324H537V321C537 319.939 536.579 318.922 535.828 318.172C535.078 317.421 534.061 317 533 317H512C510.939 317 509.922 317.421 509.172 318.172C508.421 318.922 508 319.939 508 321V324H505V321C505 319.939 504.579 318.922 503.828 318.172C503.078 317.421 502.061 317 501 317H480C478.939 317 477.922 317.421 477.172 318.172C476.421 318.922 476 319.939 476 321V324H473V321C473 319.939 472.579 318.922 471.828 318.172C471.078 317.421 470.061 317 469 317H448C446.939 317 445.922 317.421 445.172 318.172C444.421 318.922 444 319.939 444 321V324H441V321C441 319.939 440.579 318.922 439.828 318.172C439.078 317.421 438.061 317 437 317H416C414.939 317 413.922 317.421 413.172 318.172C412.421 318.922 412 319.939 412 321V324H409V321C409 319.939 408.579 318.922 407.828 318.172C407.078 317.421 406.061 317 405 317H384C382.939 317 381.922 317.421 381.172 318.172C380.421 318.922 380 319.939 380 321V324H377V321C377 319.939 376.579 318.922 375.828 318.172C375.078 317.421 374.061 317 373 317H352C350.939 317 349.922 317.421 349.172 318.172C348.421 318.922 348 319.939 348 321V324H345V321C345 319.939 344.579 318.922 343.828 318.172C343.078 317.421 342.061 317 341 317H320C318.939 317 317.922 317.421 317.172 318.172C316.421 318.922 316 319.939 316 321V324H313V321C313 319.939 312.579 318.922 311.828 318.172C311.078 317.421 310.061 317 309 317H288C286.939 317 285.922 317.421 285.172 318.172C284.421 318.922 284 319.939 284 321V324H281V321C281 319.939 280.579 318.922 279.828 318.172C279.078 317.421 278.061 317 277 317H256C254.939 317 253.922 317.421 253.172 318.172C252.421 318.922 252 319.939 252 321V324H249V321C249 319.939 248.579 318.922 247.828 318.172C247.078 317.421 246.061 317 245 317H224C222.939 317 221.922 317.421 221.172 318.172C220.421 318.922 220 319.939 220 321V324H217V321C217 319.939 216.579 318.922 215.828 318.172C215.078 317.421 214.061 317 213 317H192C190.939 317 189.922 317.421 189.172 318.172C188.421 318.922 188 319.939 188 321V324H185V321C185 319.939 184.579 318.922 183.828 318.172C183.078 317.421 182.061 317 181 317H160C158.939 317 157.922 317.421 157.172 318.172C156.421 318.922 156 319.939 156 321V324H138.5C130.941 324 123.692 327.003 118.347 332.347C113.003 337.692 110 344.941 110 352.5V352.5C110 354.754 110.896 356.916 112.49 358.51C114.084 360.104 116.246 361 118.5 361H606.5C608.754 361 610.916 360.104 612.51 358.51C614.104 356.916 615 354.754 615 352.5V352.5C615 344.941 611.997 337.692 606.653 332.347C601.308 327.003 594.059 324 586.5 324Z" fill="#3F3D56"/>
</svg>
